<svg xmlns="http://www.w3.org/2000/svg" viewBox="0 0 43 43"><defs><style>.cls-1{fill:#f2f2f2;}</style></defs><g id="Layer_2" data-name="Layer 2"><g id="C"><rect width="43" height="43"/><path class="cls-1" d="M23.5,23.25c4.78,0,8.83,6.48,9,14.26A.51.51,0,0,0,33,38h3a.51.51,0,0,0,.51-.51c-.14-7.63-3.3-14-7.85-16.74a.5.5,0,0,1-.12-.76c2.68-3.13,3.31-8-.23-12.7l-.11-.11C20.61,1.44,12.25,6.76,12.25,14a9.17,9.17,0,0,0,2.22,6,.5.5,0,0,1-.12.76C9.8,23.52,6.64,29.86,6.5,37.49A.51.51,0,0,0,7,38h3a.49.49,0,0,0,.49-.49c.17-7.78,4.22-14.26,9-14.26m2,0-3.89-5.48c-4.18-5.56,2.1-11.84,7.66-7.66l.12.12c4.18,5.56-2.1,11.84-7.66,7.66Z"/></g></g></svg>