<svg xmlns="http://www.w3.org/2000/svg" viewBox="0 0 43 43"><defs><style>.cls-1{fill:#fff;}</style></defs><g id="Layer_2" data-name="Layer 2"><g id="CONTACT_copy" data-name="CONTACT copy"><rect width="43" height="43"/><path class="cls-1" d="M11.92,35.25h-3v-6.6a4.5,4.5,0,0,1,4.5-4.5h13v3h-13a1.5,1.5,0,0,0-1.5,1.5Z"/><rect class="cls-1" x="31.5" y="24.4" width="2.5" height="2.5"/><rect class="cls-1" x="31.5" y="32.75" width="2.5" height="2.5"/><path class="cls-1" d="M21.5,19.78a6.23,6.23,0,1,1,6.22-6.23A6.24,6.24,0,0,1,21.5,19.78Zm0-9.45a3.23,3.23,0,1,0,3.22,3.22A3.22,3.22,0,0,0,21.5,10.33Z"/></g></g></svg>