<svg xmlns="http://www.w3.org/2000/svg" viewBox="0 0 43 43"><defs><style>.cls-1{fill:#fff;}</style></defs><g id="Layer_2" data-name="Layer 2"><g id="IN_copy" data-name="IN copy"><rect width="43" height="43"/><polygon class="cls-1" points="34 35.1 24 35.1 24 32.1 31 32.1 31 24 34 24 34 35.1"/><polygon class="cls-1" points="12 19 9 19 9 7.9 19 7.9 19 10.9 12 10.9 12 19"/><polygon class="cls-1" points="34 19 31 19 31 10.9 24 10.9 24 7.9 34 7.9 34 19"/><path class="cls-1" d="M19,35.1H13.5A4.51,4.51,0,0,1,9,30.6V24h3v6.6a1.5,1.5,0,0,0,1.5,1.5H19Z"/><rect class="cls-1" x="20.25" y="20.25" width="2.5" height="2.5"/></g></g></svg>