<svg xmlns="http://www.w3.org/2000/svg" viewBox="0 0 43 43"><defs><style>.cls-1{fill:#f2f2f2;}</style></defs><g id="Layer_2" data-name="Layer 2"><g id="_" data-name="+"><rect width="43" height="43"/><path class="cls-1" d="M9.5,18h-3a.5.5,0,0,1-.5-.5V5.5A.5.5,0,0,1,6.5,5h11a.5.5,0,0,1,.5.5v3a.5.5,0,0,1-.5.5h-7a.5.5,0,0,0-.5.5v8A.5.5,0,0,1,9.5,18Z"/><path class="cls-1" d="M36.5,18h-3a.5.5,0,0,1-.5-.5v-8a.5.5,0,0,0-.5-.5h-7a.5.5,0,0,1-.5-.5v-3a.5.5,0,0,1,.5-.5h11a.5.5,0,0,1,.5.5v12A.5.5,0,0,1,36.5,18Z"/><path class="cls-1" d="M17.5,38H6.5a.5.5,0,0,1-.5-.5v-12a.5.5,0,0,1,.5-.5h3a.5.5,0,0,1,.5.5v8a.5.5,0,0,0,.5.5h7a.5.5,0,0,1,.5.5v3A.5.5,0,0,1,17.5,38Z"/><path class="cls-1" d="M36.5,38h-11a.5.5,0,0,1-.5-.5v-3a.5.5,0,0,1,.5-.5h7a.5.5,0,0,0,.5-.5v-8a.5.5,0,0,1,.5-.5h3a.5.5,0,0,1,.5.5v12A.5.5,0,0,1,36.5,38Z"/></g></g></svg>