<svg xmlns="http://www.w3.org/2000/svg" viewBox="0 0 43 43"><defs><style>.cls-1{fill:#f2f2f2;}</style></defs><g id="Layer_2" data-name="Layer 2"><g id="H"><rect width="43" height="43"/><path class="cls-1" d="M36.18,38H6.82a.5.5,0,0,1-.5-.5V20.86a.51.51,0,0,1,.15-.37L21.16,6.57a.5.5,0,0,1,.68,0L36.53,20.49a.51.51,0,0,1,.15.37V37.5A.5.5,0,0,1,36.18,38ZM10.82,34H32.18a.5.5,0,0,0,.5-.5V22.57a.51.51,0,0,0-.15-.36L21.84,12.08a.5.5,0,0,0-.68,0L10.47,22.21a.51.51,0,0,0-.15.36V33.5A.5.5,0,0,0,10.82,34Z"/></g></g></svg>