<svg xmlns="http://www.w3.org/2000/svg" viewBox="0 0 43 43"><defs><style>.cls-1{fill:#f2f2f2;}</style></defs><g id="Layer_2" data-name="Layer 2"><g id="Linkedin"><rect width="43" height="43"/><path class="cls-1" d="M36.5,21.5V33A3.25,3.25,0,0,1,33,36.5H10A3.24,3.24,0,0,1,6.5,33.06V9.94A3.23,3.23,0,0,1,9.94,6.5H33.06A3.23,3.23,0,0,1,36.5,9.94Zm-17-3.64V30.47h3.71v-.71c0-1.9,0-3.79,0-5.69a5.72,5.72,0,0,1,.21-1.54A2.14,2.14,0,0,1,25.81,21a2,2,0,0,1,1.81,1.84,8.66,8.66,0,0,1,.09,1.25c0,1.89,0,3.79,0,5.68v.68h3.87a3.15,3.15,0,0,0,0-.4c0-2.6,0-5.2,0-7.81a7.2,7.2,0,0,0-.15-1.3,4.08,4.08,0,0,0-3.42-3.43,4.6,4.6,0,0,0-4.64,1.66,2.54,2.54,0,0,1-.26.21V17.86ZM16.85,30.48V17.87H13V30.48Zm-1.9-19a2.33,2.33,0,0,0,0,4.66,2.33,2.33,0,0,0,0-4.66Z"/></g></g></svg>