<svg xmlns="http://www.w3.org/2000/svg" viewBox="0 0 43 43"><defs><style>.cls-1{fill:#f2f2f2;}</style></defs><g id="Layer_2" data-name="Layer 2"><g id="Mail"><rect width="43" height="43"/><path class="cls-1" d="M6.48,8V34.81a.5.5,0,0,0,.5.5H36a.5.5,0,0,0,.5-.5V8a.5.5,0,0,0-.5-.5H7A.5.5,0,0,0,6.48,8Zm26,4v3.21a.5.5,0,0,1-.25.44l-10.52,6a.5.5,0,0,1-.5,0l-10.52-6a.5.5,0,0,1-.25-.44V12a.5.5,0,0,1,.5-.5H32A.5.5,0,0,1,32.52,12Zm-22,18.86V20.93a.5.5,0,0,1,.75-.44l10,5.74a.5.5,0,0,0,.5,0l10-5.74a.5.5,0,0,1,.75.44v9.88a.5.5,0,0,1-.5.5H11A.5.5,0,0,1,10.48,30.81Z"/></g></g></svg>