<svg xmlns="http://www.w3.org/2000/svg" viewBox="0 0 43 43"><defs><style>.cls-1{fill:#f2f2f2;}.cls-2{fill:none;stroke:#000;stroke-miterlimit:10;}</style></defs><g id="Layer_2" data-name="Layer 2"><g id="Orcid"><rect width="43" height="43"/><path class="cls-1" d="M36.5,20.37v2.26a4.64,4.64,0,0,0-.11.51,14.63,14.63,0,0,1-9.47,12.3,28.61,28.61,0,0,1-4.29,1.06H20.37a2.66,2.66,0,0,0-.38-.1A14.9,14.9,0,0,1,7.11,25.67c-.29-1-.41-2-.61-3V20.37a4.64,4.64,0,0,0,.11-.51A14.59,14.59,0,0,1,16,7.59,28.66,28.66,0,0,1,20.37,6.5h2.26a2.42,2.42,0,0,0,.45.1A14.93,14.93,0,0,1,36.13,18.29C36.28,19,36.38,19.67,36.5,20.37ZM19.31,28.23c2.05,0,4.07.15,6.07,0a6.13,6.13,0,0,0,5.45-6A5.9,5.9,0,0,0,26,16a51.06,51.06,0,0,0-6.56-.23s-.06.05-.1.08Zm-2.73.08V15.79H14.85V28.31ZM15.71,12a1.22,1.22,0,0,0-1.2,1.19,1.24,1.24,0,0,0,1.2,1.19,1.2,1.2,0,0,0,1.18-1.19A1.18,1.18,0,0,0,15.71,12ZM21.1,26.63c1.29,0,2.56.09,3.81,0a4.37,4.37,0,0,0,4-4.17c.16-2.46-1.05-4.35-3.35-4.8a32.58,32.58,0,0,0-4.47-.3Z"/><path class="cls-2" d="M15.71,12a1.21,1.21,0,0,0-1.2,1.18,1.24,1.24,0,0,0,1.2,1.2,1.22,1.22,0,0,0,1.19-1.2A1.18,1.18,0,0,0,15.71,12Zm-.86,3.81V28.3h1.73V15.78ZM26,16a51.27,51.27,0,0,0-6.57-.24s-.06.05-.1.09V28.23c2.05,0,4.08.14,6.07,0a6.11,6.11,0,0,0,5.45-6A5.87,5.87,0,0,0,26,16Zm-1.07,10.6c-1.25.11-2.52,0-3.81,0V17.34a32.49,32.49,0,0,1,4.47.29c2.3.46,3.52,2.35,3.35,4.8A4.37,4.37,0,0,1,24.91,26.61Z"/></g></g></svg>