<svg xmlns="http://www.w3.org/2000/svg" viewBox="0 0 43 43"><defs><style>.cls-1{fill:#fff;}</style></defs><g id="Layer_2" data-name="Layer 2"><g id="OUT_copy" data-name="OUT copy"><rect width="43" height="43"/><polygon class="cls-1" points="27 35.25 24 35.25 24 24.15 34 24.15 34 27.15 27 27.15 27 35.25"/><polygon class="cls-1" points="34 18.85 24 18.85 24 7.75 27 7.75 27 15.85 34 15.85 34 18.85"/><path class="cls-1" d="M19,35.25H16v-6.6a1.5,1.5,0,0,0-1.5-1.5H9v-3h5.5a4.51,4.51,0,0,1,4.5,4.5Z"/><polygon class="cls-1" points="19 18.85 9 18.85 9 15.85 16 15.85 16 7.75 19 7.75 19 18.85"/><rect class="cls-1" x="31.5" y="32.75" width="2.5" height="2.5"/><rect class="cls-1" x="9" y="7.75" width="2.5" height="2.5"/><rect class="cls-1" x="31.5" y="7.75" width="2.5" height="2.5"/></g></g></svg>